# This file uses centimeters as units for non-parametric coordinates.

mtllib Parchment.mtl
g default
v 0.398392 3.295989 -2.685564
v 1.149201 3.391488 -2.684097
v 0.542891 2.119371 -2.700781
v 1.287560 2.194395 -2.697183
v 0.909570 3.316974 -2.657485
v 1.032772 2.200529 -2.659963
v 0.660855 3.288647 -2.657846
v 0.784584 2.173931 -2.660034
v 0.494728 2.906445 -2.666265
v 1.151961 2.979693 -2.655316
v 0.919414 2.941640 -2.683141
v 0.702498 2.917451 -2.679495
v 0.542055 2.509060 -2.655996
v 1.195740 2.580887 -2.655316
v 0.970438 2.574830 -2.665398
v 0.752652 2.550126 -2.662692
v 0.547226 2.124846 -2.673635
v 0.542893 2.119381 -2.679234
v 0.784181 2.178691 -2.634472
v 0.784584 2.173935 -2.638886
v 0.403899 3.291448 -2.659110
v 0.398337 3.295957 -2.664237
v 0.660837 3.288637 -2.636856
v 0.661376 3.283799 -2.632583
v 0.542059 2.509063 -2.635029
v 0.546909 2.510009 -2.630791
v 1.287573 2.194435 -2.675888
v 1.282012 2.198967 -2.670372
v 1.195740 2.580887 -2.634390
v 1.190777 2.580754 -2.630167
v 1.032778 2.200547 -2.638950
v 1.031990 2.205288 -2.634539
v 1.149195 3.391499 -2.662621
v 1.144896 3.385607 -2.657401
v 0.909568 3.316979 -2.636538
v 0.909698 3.312020 -2.632240
v 0.499751 2.906721 -2.641168
v 0.494756 2.906455 -2.645297
v 1.151961 2.979693 -2.634562
v 1.146992 2.978880 -2.630522
v 1.223532 2.247736 -2.516268
v 1.252429 2.249129 -2.524251
v 1.178093 2.300070 -2.716705
v 1.183899 2.300349 -2.718309
v 1.177870 2.294322 -2.718516
v 1.183676 2.294602 -2.720120
v 1.222421 2.219131 -2.525280
v 1.251318 2.220524 -2.533262
v 0.558704 2.169201 -2.524131
v 0.587763 2.167007 -2.516954
v 0.623266 2.229010 -2.717091
v 0.629105 2.228569 -2.715649
v 0.623357 2.223356 -2.719188
v 0.629196 2.222916 -2.717746
v 0.559158 2.141065 -2.534565
v 0.588216 2.138871 -2.527388
v 1.146925 3.361387 -2.523308
v 1.173483 3.364000 -2.537039
v 1.066718 3.313600 -2.713733
v 1.072054 3.314125 -2.716492
v 1.067664 3.307687 -2.713028
v 1.073000 3.308212 -2.715787
v 1.151636 3.331956 -2.519796
v 1.178194 3.334569 -2.533528
v 0.409175 3.295137 -2.534107
v 0.437651 3.295845 -2.524655
v 0.485102 3.225755 -2.719580
v 0.490824 3.225898 -2.717681
v 0.484709 3.219959 -2.717962
v 0.490431 3.220101 -2.716063
v 0.407220 3.266292 -2.526057
v 0.435696 3.266999 -2.516605
vt 0.443826 0.361200
vt 0.612959 0.361051
vt 0.606737 0.650548
vt 0.438322 0.651025
vt 0.248133 0.048885
vt 0.246159 0.969432
vt 0.251591 0.039285
vt 0.437730 0.068816
vt 0.434730 0.069893
vt 0.812922 0.033158
vt 0.282648 0.348449
vt 0.279063 0.347809
vt 0.441246 0.944994
vt 0.442537 0.962839
vt 0.246820 0.982281
vt 0.253600 0.012776
vt 0.438547 0.050494
vt 0.837132 0.036745
vt 0.805102 0.345881
vt 0.234437 0.043749
vt 0.264013 0.347450
vt 0.625611 0.066706
vt 0.627053 0.068564
vt 0.243131 0.968278
vt 0.631339 0.964511
vt 0.632248 0.945819
vt 0.621700 0.047759
vt 0.819554 0.974906
vt 0.817741 0.987047
vt 0.803147 0.007934
vt 0.253356 0.661424
vt 0.273436 0.661284
vt 0.786737 0.346128
vt 0.789896 0.659739
vt 0.809004 0.659300
vt 0.282102 0.660879
vt 0.439886 0.939611
vt 0.632750 0.939501
vt 0.236129 0.973909
vt 0.837641 0.978450
vt 0.817984 0.041276
vt 0.782501 0.346274
vt 0.784706 0.659553
vt 0.819537 0.975681
vt 0.872781 0.430825
vt 0.906294 0.430825
vt 0.906294 0.677038
vt 0.898263 0.677038
vt 0.922357 0.677038
vt 0.914326 0.677038
vt 0.939808 0.430825
vt 0.973322 0.430825
vt 0.839267 0.430825
vt 0.839267 0.397311
vt 0.872781 0.397311
vt 0.890231 0.677038
vt 0.872781 0.430825
vt 0.906294 0.430825
vt 0.906294 0.677038
vt 0.898263 0.677038
vt 0.922357 0.677038
vt 0.914326 0.677038
vt 0.939808 0.430825
vt 0.973322 0.430825
vt 0.839267 0.430825
vt 0.839267 0.397311
vt 0.872781 0.397311
vt 0.890231 0.677038
vt 0.872781 0.430825
vt 0.906294 0.430825
vt 0.906294 0.677038
vt 0.898263 0.677038
vt 0.922357 0.677038
vt 0.914326 0.677038
vt 0.939808 0.430825
vt 0.973322 0.430825
vt 0.839267 0.430825
vt 0.839267 0.397311
vt 0.872781 0.397311
vt 0.890231 0.677038
vt 0.872781 0.430825
vt 0.906294 0.430825
vt 0.906294 0.677038
vt 0.898263 0.677038
vt 0.922357 0.677038
vt 0.914326 0.677038
vt 0.939808 0.430825
vt 0.973322 0.430825
vt 0.839267 0.430825
vt 0.839267 0.397311
vt 0.872781 0.397311
vt 0.890231 0.677038
vn 0.039549 0.042583 0.998310
vn -0.051446 0.029052 0.998253
vn -0.054283 -0.030875 0.998048
vn 0.055515 -0.016831 0.998316
vn -0.044272 -0.044551 0.998026
vn -0.791467 -0.594865 0.140412
vn 0.142952 -0.970377 0.194766
vn -0.006539 0.016472 0.999843
vn 0.046592 0.012030 0.998842
vn -0.977656 -0.068428 0.198762
vn 0.056170 -0.979125 0.195344
vn 0.000692 0.018402 0.999831
vn -0.011507 -0.016091 0.999804
vn -0.900535 0.407255 0.152252
vn -0.966858 -0.169774 0.190691
vn 0.066609 0.003335 0.997774
vn 0.022479 -0.068053 0.997428
vn -0.051776 0.979131 0.196525
vn -0.020890 -0.063626 0.997755
vn -0.191512 0.961547 0.196853
vn 0.903796 -0.403178 0.143528
vn 0.037894 -0.029038 0.998860
vn 0.967652 0.156528 0.197859
vn -0.068856 -0.004699 0.997616
vn 0.978588 0.062843 0.195999
vn -0.097577 -0.015289 0.995111
vn 0.794124 0.589147 0.149240
vn -0.018228 -0.006282 0.999814
vn -0.038502 0.999258 0.000569
vn -0.925098 0.379728 -0.000104
vn -0.819454 -0.573145 0.000319
vn 0.166591 -0.986026 0.000408
vn 0.924475 -0.381242 0.000314
vn 0.984998 0.172564 -0.000280
vn -0.998253 -0.059086 0.000454
vn -0.209603 0.977787 -0.000189
vn 0.818662 0.574276 -0.000110
vn 0.037810 -0.999285 0.000972
vn -0.983425 -0.181315 -0.000009
vn 0.998438 0.055876 0.000071
vn 0.021833 0.968532 0.247928
vn 0.021833 0.968532 0.247928
vn 0.021833 0.968532 0.247928
vn 0.021833 0.968532 0.247928
vn -0.052106 -0.934668 -0.351682
vn -0.052106 -0.934668 -0.351682
vn -0.052106 -0.934668 -0.351682
vn -0.052106 -0.934668 -0.351682
vn 0.267455 -0.298981 0.916012
vn 0.267455 -0.298981 0.916012
vn 0.267455 -0.298981 0.916012
vn 0.267455 -0.298981 0.916012
vn 0.946168 0.063240 -0.317437
vn 0.946168 0.063240 -0.317437
vn 0.946168 0.063240 -0.317437
vn 0.946168 0.063240 -0.317437
vn -0.976460 -0.029393 0.213688
vn -0.976460 -0.029393 0.213688
vn -0.976460 -0.029393 0.213688
vn -0.976460 -0.029393 0.213688
vn -0.000949 0.955258 0.295771
vn -0.000949 0.955258 0.295771
vn -0.000949 0.955258 0.295771
vn -0.000949 0.955258 0.295771
vn 0.029222 -0.916725 -0.398448
vn 0.029222 -0.916725 -0.398448
vn 0.029222 -0.916725 -0.398448
vn 0.029222 -0.916725 -0.398448
vn -0.249621 -0.340235 0.906603
vn -0.249621 -0.340235 0.906603
vn -0.249621 -0.340235 0.906603
vn -0.249621 -0.340235 0.906603
vn 0.980808 -0.053701 0.187436
vn 0.980808 -0.053701 0.187436
vn 0.980808 -0.053701 0.187436
vn 0.980808 -0.053701 0.187436
vn -0.952536 0.092236 -0.290117
vn -0.952536 0.092236 -0.290117
vn -0.952536 0.092236 -0.290117
vn -0.952536 0.092236 -0.290117
vn -0.181553 0.969143 -0.166733
vn -0.181553 0.969143 -0.166733
vn -0.181553 0.969143 -0.166733
vn -0.181553 0.969143 -0.166733
vn 0.131893 -0.989004 0.066902
vn 0.131893 -0.989004 0.066902
vn 0.131893 -0.989004 0.066902
vn 0.131893 -0.989004 0.066902
vn 0.438485 0.175361 0.881464
vn 0.438485 0.175361 0.881464
vn 0.438485 0.175361 0.881464
vn 0.438485 0.175361 0.881464
vn 0.858664 0.076993 -0.506723
vn 0.858664 0.076993 -0.506723
vn 0.858664 0.076993 -0.506723
vn 0.858664 0.076993 -0.506723
vn -0.908328 -0.096846 0.406893
vn -0.908328 -0.096846 0.406893
vn -0.908328 -0.096846 0.406893
vn -0.908328 -0.096846 0.406893
vn 0.082538 0.944033 -0.319357
vn 0.082538 0.944033 -0.319357
vn 0.082538 0.944033 -0.319357
vn 0.082538 0.944033 -0.319357
vn -0.047539 -0.975180 0.216249
vn -0.047539 -0.975180 0.216249
vn -0.047539 -0.975180 0.216249
vn -0.047539 -0.975180 0.216249
vn -0.309024 0.275021 0.910422
vn -0.309024 0.275021 0.910422
vn -0.309024 0.275021 0.910422
vn -0.309024 0.275021 0.910422
vn 0.964794 0.007966 0.262886
vn 0.964794 0.007966 0.262886
vn 0.964794 0.007966 0.262886
vn 0.964794 0.007966 0.262886
vn -0.929795 -0.039121 -0.365993
vn -0.929795 -0.039121 -0.365993
vn -0.929795 -0.039121 -0.365993
vn -0.929795 -0.039121 -0.365993
s 1
g Parchment
usemtl lambert4SG
f 16/1/1 15/2/2 11/3/3 12/4/4
f 17/5/5 18/7/6 20/8/7 19/9/8
f 18/7/6 17/5/5 26/11/9 25/12/10
f 19/9/8 20/8/7 31/22/11 32/23/12
f 21/24/13 22/6/14 38/32/15 37/36/16
f 22/6/14 21/24/13 24/37/17 23/13/18
f 23/13/18 24/37/17 36/38/19 35/26/20
f 25/12/10 26/11/9 37/36/16 38/32/15
f 27/10/21 28/41/22 32/23/12 31/22/11
f 28/41/22 27/10/21 29/33/23 30/42/24
f 30/42/24 29/33/23 39/34/25 40/43/26
f 33/28/27 34/44/28 40/43/26 39/34/25
f 34/44/28 33/28/27 35/26/20 36/38/19
f 17/5/5 19/9/8 16/1/1 26/11/9
f 22/6/14 23/13/18 7/14/29 1/15/30
f 3/16/31 8/17/32 20/8/7 18/7/6
f 27/10/21 4/18/33 14/19/34 29/33/23
f 3/20/31 18/7/6 25/12/10 13/21/35
f 32/23/12 28/41/22 30/42/24 15/2/2
f 5/25/36 35/26/20 33/28/27 2/29/37
f 31/22/11 6/27/38 4/30/33 27/10/21
f 19/9/8 32/23/12 15/2/2 16/1/1
f 7/14/29 23/13/18 35/26/20 5/25/36
f 20/8/7 8/17/32 6/27/38 31/22/11
f 9/31/39 38/32/15 22/6/14 1/39/30
f 39/34/25 10/35/40 2/40/37 33/28/27
f 11/3/3 40/43/26 34/44/28 36/38/19
f 12/4/4 11/3/3 36/38/19 24/37/17
f 37/36/16 12/4/4 24/37/17 21/24/13
f 13/21/35 25/12/10 38/32/15 9/31/39
f 29/33/23 14/19/34 10/35/40 39/34/25
f 15/2/2 30/42/24 40/43/26 11/3/3
f 26/11/9 16/1/1 12/4/4 37/36/16
s off
f 41/45/41 42/46/42 44/47/43 43/48/44
f 45/49/45 46/50/46 48/51/47 47/52/48
f 47/53/49 48/54/50 42/55/51 41/45/52
f 42/46/53 48/51/54 46/50/55 44/47/56
f 47/53/57 41/45/58 43/48/59 45/56/60
f 49/57/61 50/58/62 52/59/63 51/60/64
f 53/61/65 54/62/66 56/63/67 55/64/68
f 55/65/69 56/66/70 50/67/71 49/57/72
f 50/58/73 56/63/74 54/62/75 52/59/76
f 55/65/77 49/57/78 51/60/79 53/68/80
f 57/69/81 58/70/82 60/71/83 59/72/84
f 61/73/85 62/74/86 64/75/87 63/76/88
f 63/77/89 64/78/90 58/79/91 57/69/92
f 58/70/93 64/75/94 62/74/95 60/71/96
f 63/77/97 57/69/98 59/72/99 61/80/100
f 65/81/101 66/82/102 68/83/103 67/84/104
f 69/85/105 70/86/106 72/87/107 71/88/108
f 71/89/109 72/90/110 66/91/111 65/81/112
f 66/82/113 72/87/114 70/86/115 68/83/116
f 71/89/117 65/81/118 67/84/119 69/92/120
